<?xml version="1.0" encoding="utf-8"?>
<svg version="1.1" viewBox="0.00 0.00 544.00 195.00" xmlns="http://www.w3.org/2000/svg">
  <path d=" M 25.59 0.00 L 36.81 0.00 L 192.32 0.00 L 196.94 0.00 L 196.96 174.22 A 0.38 0.38 0.0 0 1 196.31 174.49 L 173.95 152.14 Q 172.91 151.10 172.81 152.56 C 171.88 166.19 172.81 180.33 172.78 194.03 Q 172.78 194.47 172.40 194.71 L 171.94 195.00 L 20.58 195.00 C 21.29 193.18 23.56 191.81 24.58 190.79 Q 78.54 136.84 132.98 82.41 A 1.52 1.51 -45.1 0 1 135.12 82.40 L 174.08 120.98 A 0.40 0.39 22.2 0 0 174.75 120.70 L 174.84 23.17 A 1.42 1.41 0.2 0 0 173.42 21.75 L 77.69 21.76 Q 74.33 21.76 76.71 24.13 L 114.27 61.54 A 1.31 1.31 0.0 0 1 114.27 63.40 Q 60.99 116.65 7.72 169.72 Q 4.53 172.91 1.86 175.32 Q 0.52 176.54 0.52 174.73 L 0.47 25.92 Q 0.47 24.30 2.08 24.30 L 44.50 24.18 A 0.66 0.66 0.0 0 0 44.96 23.05 L 22.49 0.96 Q 22.05 0.54 22.65 0.44 L 25.59 0.00 Z M 82.20 60.23 C 79.34 57.71 70.04 46.73 66.88 46.62 Q 45.48 45.94 24.22 46.46 A 1.78 1.78 0.0 0 0 22.49 48.24 L 22.53 121.48 Q 22.53 124.11 24.39 122.25 Q 53.38 93.18 81.97 64.72 Q 84.47 62.22 82.20 60.23 Z M 148.81 127.19 Q 142.21 120.55 135.40 113.81 Q 134.10 112.53 132.80 113.82 L 73.95 172.69 A 0.77 0.77 0.0 0 0 74.49 174.00 L 149.38 174.01 Q 149.85 174.01 149.91 173.54 C 151.49 159.72 150.54 144.53 150.53 130.57 Q 150.53 128.92 148.81 127.19 Z" style="fill: rgb(255, 255, 255);"/>
  <path d=" M 481.17 49.52 L 507.35 49.51 A 1.47 1.47 0.0 0 1 508.77 50.59 L 517.00 79.72 A 0.36 0.36 0.0 0 0 517.69 79.72 L 525.54 50.16 Q 525.72 49.50 526.40 49.50 L 540.21 49.50 Q 540.83 49.50 540.63 50.09 Q 533.46 70.99 526.08 91.75 C 522.91 100.69 521.35 106.31 513.47 109.65 C 509.34 111.39 503.78 110.82 499.20 110.50 A 1.02 1.01 -88.2 0 1 498.25 109.48 L 498.25 99.46 Q 498.25 98.78 498.93 98.77 C 502.02 98.70 512.07 99.90 509.50 93.14 Q 501.47 72.03 493.31 50.99 Q 493.23 50.79 493.09 50.66 Q 492.92 50.52 492.84 50.45 A 0.43 0.43 0.0 0 0 492.14 50.80 L 492.30 60.60 Q 492.31 61.25 491.65 61.25 L 481.50 61.25 Q 480.75 61.25 480.75 62.00 L 480.75 94.77 A 1.07 1.06 0.3 0 1 479.67 95.83 L 467.73 95.71 A 1.24 1.24 0.0 0 1 466.50 94.47 L 466.50 61.75 Q 466.50 61.25 466.00 61.25 L 461.69 61.25 A 0.58 0.57 -0.5 0 1 461.11 60.69 L 460.95 50.41 A 0.90 0.90 0.0 0 1 461.85 49.50 L 465.72 49.50 A 0.87 0.87 0.0 0 0 466.59 48.66 C 467.00 33.19 480.45 30.93 493.02 33.44 Q 493.59 33.56 493.60 34.14 L 493.75 43.25 A 0.95 0.94 3.9 0 1 492.66 44.20 Q 487.31 43.40 482.04 44.30 A 1.15 1.14 -1.0 0 0 481.09 45.28 L 480.62 48.90 Q 480.55 49.52 481.17 49.52 Z" style="fill: rgb(255, 255, 255);"/>
  <rect x="-7.50" y="-5.50" transform="translate(448.00,39.00) rotate(-0.1)" width="15.00" height="11.00" rx="0.69" style="fill: rgb(255, 255, 255);"/>
  <path d=" M 249.55 64.97 Q 254.92 66.10 256.99 71.49 C 260.00 79.32 258.20 89.57 250.18 93.39 C 246.53 95.13 241.38 95.69 236.76 95.72 Q 224.78 95.79 212.95 95.73 A 0.76 0.76 0.0 0 1 212.19 94.96 L 212.41 38.05 Q 212.42 37.03 213.44 37.03 Q 225.16 36.97 237.75 36.95 C 242.88 36.94 249.71 38.10 252.92 42.58 C 255.61 46.33 255.84 54.09 254.86 58.05 Q 253.83 62.17 249.47 64.30 A 0.36 0.36 0.0 0 0 249.55 64.97 Z M 226.98 49.26 L 227.00 60.50 A 0.27 0.27 0.0 0 0 227.27 60.77 L 237.38 60.75 A 4.89 4.58 89.9 0 0 241.95 55.86 L 241.95 53.86 A 4.89 4.58 89.9 0 0 237.36 48.97 L 227.25 48.99 A 0.27 0.27 0.0 0 0 226.98 49.26 Z M 227.03 72.31 L 226.97 82.41 A 0.80 0.80 0.0 0 0 227.77 83.22 L 238.41 83.27 A 5.80 5.31 0.3 0 0 244.24 78.00 L 244.24 76.92 A 5.80 5.31 0.3 0 0 238.47 71.57 L 227.83 71.52 A 0.80 0.80 0.0 0 0 227.03 72.31 Z" style="fill: rgb(255, 255, 255);"/>
  <path d=" M 402.81 60.30 L 402.83 50.24 A 0.66 0.65 88.6 0 1 403.45 49.58 L 408.12 49.30 Q 408.77 49.26 408.88 48.61 L 410.38 39.46 A 0.85 0.85 0.0 0 1 411.22 38.75 L 421.78 38.75 A 0.55 0.55 0.0 0 1 422.33 39.28 L 422.57 49.04 A 0.47 0.47 0.0 0 0 423.04 49.50 L 435.00 49.50 Q 435.50 49.50 435.50 50.00 L 435.50 60.50 Q 435.50 61.25 434.75 61.25 L 423.00 61.25 A 0.50 0.50 0.0 0 0 422.50 61.75 L 422.50 80.44 A 2.71 2.69 4.6 0 0 424.77 83.10 Q 429.59 83.88 434.43 82.84 A 1.35 1.35 0.0 0 1 436.07 84.17 L 435.97 93.85 A 1.55 1.55 0.0 0 1 434.83 95.33 C 424.14 98.26 408.85 97.52 408.40 82.55 Q 408.11 72.68 408.29 63.05 Q 408.32 61.44 406.72 61.33 L 403.54 61.10 Q 402.80 61.04 402.81 60.30 Z" style="fill: rgb(255, 255, 255);"/>
  <path d=" M 307.8900 78.3311 A 18.15 18.15 0.0 0 1 289.8035 96.5444 L 280.9436 96.5753 A 18.15 18.15 0.0 0 1 262.7303 78.4888 L 262.6900 66.9289 A 18.15 18.15 0.0 0 1 280.7765 48.7156 L 289.6364 48.6847 A 18.15 18.15 0.0 0 1 307.8497 66.7712 L 307.8900 78.3311 Z M 293.9089 67.2649 A 5.92 5.92 0.0 0 0 287.9993 61.3346 L 282.7393 61.3254 A 5.92 5.92 0.0 0 0 276.8090 67.2351 L 276.7911 77.4951 A 5.92 5.92 0.0 0 0 282.7007 83.4254 L 287.9607 83.4346 A 5.92 5.92 0.0 0 0 293.8910 77.5249 L 293.9089 67.2649 Z" style="fill: rgb(255, 255, 255);"/>
  <path d=" M 358.3595 78.1709 A 18.29 18.29 0.0 0 1 340.1334 96.5246 L 331.3935 96.5551 A 18.29 18.29 0.0 0 1 313.0398 78.3291 L 313.0005 67.0891 A 18.29 18.29 0.0 0 1 331.2266 48.7354 L 339.9665 48.7049 A 18.29 18.29 0.0 0 1 358.3202 66.9309 L 358.3595 78.1709 Z M 344.3288 67.3150 A 5.97 5.97 0.0 0 0 338.3693 61.3346 L 333.0893 61.3254 A 5.97 5.97 0.0 0 0 327.1089 67.2850 L 327.0912 77.4250 A 5.97 5.97 0.0 0 0 333.0507 83.4054 L 338.3307 83.4146 A 5.97 5.97 0.0 0 0 344.3111 77.4550 L 344.3288 67.3150 Z" style="fill: rgb(255, 255, 255);"/>
  <path d=" M 385.24 78.87 C 373.45 76.79 360.62 78.68 363.45 60.99 C 365.82 46.18 385.37 47.75 396.16 49.39 Q 396.65 49.46 396.67 49.96 L 396.98 59.93 A 0.89 0.88 -0.3 0 1 396.07 60.84 L 380.04 60.51 A 2.62 2.61 11.7 0 0 377.58 62.12 C 375.53 67.00 384.76 66.41 387.33 66.84 C 393.08 67.82 397.84 68.33 399.43 73.54 C 402.28 82.83 398.96 94.90 387.74 96.24 Q 377.36 97.49 365.46 95.23 A 1.49 1.49 0.0 0 1 364.25 93.77 L 364.25 83.76 A 0.83 0.83 0.0 0 1 365.24 82.95 C 370.74 84.02 379.96 85.44 385.18 83.04 Q 385.62 82.84 385.65 82.34 L 385.79 79.57 Q 385.82 78.98 385.24 78.87 Z" style="fill: rgb(255, 255, 255);"/>
  <rect x="-7.09" y="-23.16" transform="translate(448.07,72.58) rotate(-0.2)" width="14.18" height="46.32" rx="0.63" style="fill: rgb(255, 255, 255);"/>
  <path d=" M 247.04 157.51 A 0.60 0.60 0.0 0 0 246.02 157.31 Q 241.22 162.81 233.52 162.81 C 208.36 162.81 208.47 122.86 232.18 120.13 C 240.00 119.24 250.48 123.80 250.74 132.99 Q 250.76 133.50 250.24 133.50 L 246.49 133.50 Q 245.88 133.50 245.67 132.93 Q 242.61 124.43 233.72 124.98 C 216.14 126.07 215.95 155.37 231.54 157.89 C 239.47 159.18 247.25 153.88 246.26 144.98 Q 246.21 144.50 245.72 144.50 L 234.70 144.50 A 0.90 0.90 0.0 0 1 233.88 143.22 Q 234.22 142.48 233.86 141.78 A 1.21 1.21 0.0 0 1 234.93 140.02 L 251.07 139.96 Q 251.68 139.96 251.68 140.57 L 251.92 161.01 A 0.74 0.74 0.0 0 1 251.18 161.75 L 249.00 161.75 Q 248.46 161.75 248.29 161.24 L 247.04 157.51 Z" style="fill: rgb(255, 255, 255);"/>
  <path d=" M 510.64 121.69 A 0.86 0.86 0.0 0 1 511.56 120.83 L 514.82 121.07 A 1.00 0.99 -88.2 0 1 515.75 122.07 L 515.75 134.50 A 0.55 0.55 0.0 0 0 516.72 134.85 C 521.05 129.59 530.34 130.35 533.36 135.91 C 536.17 141.09 534.75 154.81 534.75 161.02 A 0.73 0.72 -90.0 0 1 534.03 161.75 L 530.76 161.75 Q 529.75 161.75 529.71 160.74 Q 529.40 152.36 529.50 143.68 C 529.55 139.19 528.49 135.25 523.18 135.92 Q 515.65 136.87 515.69 144.99 Q 515.72 152.99 515.78 160.96 A 0.80 0.80 0.0 0 1 514.98 161.76 L 511.13 161.74 A 0.68 0.68 0.0 0 1 510.46 161.06 L 510.64 121.69 Z" style="fill: rgb(255, 255, 255);"/>
  <path d=" M 472.74 132.00 L 476.09 132.00 A 0.65 0.65 0.0 0 1 476.74 132.65 L 476.74 135.60 Q 476.74 136.25 476.09 136.25 L 472.69 136.25 Q 472.08 136.25 472.07 136.86 Q 471.83 150.13 472.06 155.19 Q 472.21 158.55 475.81 157.60 A 0.71 0.71 0.0 0 1 476.70 158.26 L 476.77 161.17 A 0.69 0.68 -5.2 0 1 476.18 161.87 C 470.62 162.64 467.07 161.90 467.03 155.49 Q 466.97 146.22 467.01 136.92 A 0.65 0.65 0.0 0 0 466.36 136.27 L 463.62 136.24 A 0.62 0.62 0.0 0 1 463.00 135.62 L 463.00 132.71 Q 463.00 131.92 463.79 131.96 L 466.41 132.09 Q 467.00 132.12 467.00 131.53 L 467.00 124.67 Q 467.00 124.08 467.59 124.03 L 471.40 123.69 Q 471.90 123.65 471.92 124.15 L 472.22 131.49 Q 472.24 132.00 472.74 132.00 Z" style="fill: rgb(255, 255, 255);"/>
  <path d=" M 346.5667 163.0270 A 16.02 13.98 94.2 0 1 333.7975 146.0261 A 16.02 13.98 94.2 0 1 348.9133 131.0730 A 16.02 13.98 94.2 0 1 361.6825 148.0739 A 16.02 13.98 94.2 0 1 346.5667 163.0270 Z M 356.1880 143.8906 A 7.66 7.66 0.0 0 0 348.8555 135.9166 L 347.5766 135.8630 A 7.66 7.66 0.0 0 0 339.6026 143.1955 L 339.3120 150.1294 A 7.66 7.66 0.0 0 0 346.6445 158.1034 L 347.9234 158.1570 A 7.66 7.66 0.0 0 0 355.8974 150.8245 L 356.1880 143.8906 Z" style="fill: rgb(255, 255, 255);"/>
  <path d=" M 293.26 135.50 A 0.40 0.40 0.0 0 0 293.99 135.78 Q 297.03 131.35 302.48 131.43 A 0.71 0.70 -88.0 0 1 303.17 132.18 L 302.94 136.28 Q 302.91 136.85 302.35 136.82 Q 297.20 136.57 295.00 140.13 C 292.55 144.09 293.76 156.11 293.74 161.07 Q 293.74 161.75 293.06 161.75 L 289.90 161.75 Q 288.54 161.75 288.54 160.40 L 288.48 132.68 A 0.66 0.66 0.0 0 1 289.14 132.02 L 292.35 131.99 Q 293.74 131.98 293.55 133.36 L 293.26 135.50 Z" style="fill: rgb(255, 255, 255);"/>
  <path d=" M 421.08 153.79 A 0.33 0.33 0.0 0 0 421.72 153.79 L 427.29 132.55 A 0.75 0.75 0.0 0 1 428.01 132.00 L 431.49 132.00 A 0.77 0.77 0.0 0 1 432.23 132.99 L 424.36 159.87 A 3.19 3.19 0.0 0 1 418.22 159.80 L 413.10 140.71 A 0.45 0.45 0.0 0 0 412.23 140.71 L 406.99 161.21 A 0.72 0.72 0.0 0 1 406.29 161.75 L 402.48 161.75 Q 401.69 161.75 401.47 160.99 L 393.40 133.20 A 0.95 0.95 0.0 0 1 394.33 131.98 L 398.00 132.05 A 0.81 0.79 -6.0 0 1 398.77 132.66 L 403.90 153.59 A 0.43 0.43 0.0 0 0 404.74 153.59 L 409.77 132.87 Q 409.97 132.05 410.81 132.04 L 414.95 131.98 A 0.85 0.85 0.0 0 1 415.79 132.63 L 421.08 153.79 Z" style="fill: rgb(255, 255, 255);"/>
</svg>